# xmcd
#
# Track frame offsets: 
#        150
#        12865
#        26306
#        37343
#        50210
#        61467
#        77956
#        92772
#        105774
#        118279
#        132604
#        143280
#        153914
#        167215
#        182074
#
# Disc length: 2615 seconds
#
# Revision: 0
# Processed by: cddbd v1.5.2PL0 Copyright (c) Steve Scherf et al.
# Submitted via: ExactAudioCopy v1.0b3
#
DISCID=c90a350f
DTITLE=Various Artist - Ta Tragoudia tis Geitonias Cd2
DYEAR=1900
DGENRE=Country
TTITLE0=Biki Mosxoliou - Pira apo ti Nioti Xromata
TTITLE1=Giannis Kalatzis - I Gorgona (Stin Apano Geitonitsa)
TTITLE2=Manolis Mitsias - Koitakse na deis
TTITLE3=Tolis Boskopoulos - Aman me sena pia
TTITLE4=Giannis Poulopoulos - Agapi mou
TTITLE5=Nikos Xylouris - Filentem
TTITLE6=Giannis Parios - Gia Panta Mazi
TTITLE7=Marinella - Thelo na t' akouo
TTITLE8=Anna Vissi - Mi Bazeis Mauro
TTITLE9=Doros Georgiadis - An Imoun Plousios
TTITLE10=Aleka Kanelidou - An Ksanagenniomouna
TTITLE11=Tania Tsanaklidou - Paei i agapi mou
TTITLE12=Biki Mosxoliou - Porta kleisti ta xeili sou
TTITLE13=Stamatis Kokotas - Oneiro Apatilo
TTITLE14=Stelios Kazantzidis - I Proti sou Agapi eimai ego
EXTD=
EXTT0=
EXTT1=
EXTT2=
EXTT3=
EXTT4=
EXTT5=
EXTT6=
EXTT7=
EXTT8=
EXTT9=
EXTT10=
EXTT11=
EXTT12=
EXTT13=
EXTT14=
PLAYORDER=
